<?xml version="1.0" standalone="no"?>
<!DOCTYPE svg PUBLIC "-//W3C//DTD SVG 20010904//EN"
 "http://www.w3.org/TR/2001/REC-SVG-20010904/DTD/svg10.dtd">
<svg version="1.0" xmlns="http://www.w3.org/2000/svg"
 width="500.000000pt" height="500.000000pt" viewBox="0 0 500.000000 500.000000"
 preserveAspectRatio="xMidYMid meet">

<g transform="translate(0.000000,500.000000) scale(0.100000,-0.100000)"
fill="#000000" stroke="none">
<path d="M790 3395 l0 -255 290 0 290 0 0 255 0 255 -290 0 -290 0 0 -255z
m217 60 l56 -85 56 85 c83 126 91 120 91 -60 0 -137 -1 -145 -20 -145 -18 0
-20 8 -22 102 l-3 102 -44 -67 c-24 -37 -49 -67 -57 -67 -7 0 -34 30 -59 67
l-45 68 0 -103 c0 -99 -1 -102 -22 -102 -22 0 -23 3 -23 98 1 167 3 192 20
192 8 0 40 -38 72 -85z"/>
<path d="M1530 3523 c-36 -7 -70 -42 -70 -73 0 -39 22 -62 76 -80 36 -12 49
-22 49 -36 0 -24 -28 -30 -48 -9 -9 8 -29 15 -46 15 -38 0 -41 -21 -6 -55 19
-20 34 -25 75 -25 64 0 85 11 99 51 17 48 -3 80 -62 100 -54 18 -72 32 -63 48
10 16 46 13 52 -4 8 -21 74 -21 74 0 0 20 -44 65 -64 65 -8 0 -20 2 -28 4 -7
2 -24 1 -38 -1z"/>
<path d="M1786 3512 c-6 -10 -96 -242 -96 -248 0 -2 16 -4 35 -4 24 0 37 6 45
20 8 15 21 20 55 20 35 0 45 -4 50 -20 5 -16 15 -20 46 -20 21 0 39 1 39 3 0
1 -22 58 -49 127 l-49 125 -35 3 c-19 2 -38 -1 -41 -6z m64 -149 c0 -8 -12
-13 -30 -13 -19 0 -28 4 -25 13 2 6 10 26 16 42 l11 30 14 -30 c7 -16 13 -36
14 -42z"/>
<path d="M2066 3512 c-6 -10 -96 -242 -96 -248 0 -2 16 -4 35 -4 24 0 37 6 45
20 8 15 21 20 55 20 35 0 45 -4 50 -20 5 -16 15 -20 46 -20 21 0 39 1 39 3 0
1 -22 58 -49 127 l-49 125 -35 3 c-19 2 -38 -1 -41 -6z m64 -149 c0 -8 -12
-13 -30 -13 -19 0 -28 4 -25 13 2 6 10 26 16 42 l11 30 14 -30 c7 -16 13 -36
14 -42z"/>
<path d="M2270 3390 l0 -130 40 0 40 0 0 40 c0 27 4 40 13 40 8 0 22 -18 32
-40 17 -38 21 -40 61 -40 l43 0 -24 42 c-23 41 -24 42 -4 66 19 24 25 75 13
107 -12 29 -60 45 -139 45 l-75 0 0 -130z m147 54 c10 -26 -11 -49 -43 -49
-25 0 -29 4 -32 33 -3 31 -2 32 33 32 24 0 38 -5 42 -16z"/>
<path d="M2540 3390 l0 -130 40 0 40 0 0 130 0 130 -40 0 -40 0 0 -130z"/>
<path d="M2680 3390 l0 -130 35 0 34 0 3 68 3 67 23 -37 c31 -50 60 -50 95 -1
l27 38 0 -68 0 -67 35 0 35 0 0 130 0 130 -29 0 c-23 0 -35 -11 -70 -60 -23
-33 -44 -60 -46 -60 -2 0 -23 27 -46 60 -35 49 -47 60 -70 60 l-29 0 0 -130z"/>
<path d="M1430 3140 c0 -20 7 -20 790 -20 783 0 790 0 790 20 0 20 -7 20 -790
20 -783 0 -790 0 -790 -20z"/>
</g>
</svg>
